HIERARCHY
ROOT Hips
{
	OFFSET 0.000000 71.427986 0.000000
	CHANNELS 6 Xposition Yposition Zposition Xrotation Yrotation Zrotation
	JOINT Pelvis
	{
		OFFSET 0.000000 0.000000 0.000000
		CHANNELS 3 Xrotation Yrotation Zrotation
		JOINT LeftUpLeg
		{
			OFFSET 6.797100 -2.508499 -1.318700
			CHANNELS 3 Xrotation Yrotation Zrotation
			JOINT LeftLeg
			{
				OFFSET 0.069008 -29.241863 0.690200
				CHANNELS 3 Xrotation Yrotation Zrotation
				JOINT LeftFoot
				{
					OFFSET -0.069008 -29.568123 -0.266800
					CHANNELS 3 Xrotation Yrotation Zrotation
					JOINT LeftToeBase
					{
						OFFSET 3.145500 -8.631000 16.059900
						CHANNELS 3 Xrotation Yrotation Zrotation
						End Site
						{
							OFFSET 0.000000 18.501587 0.000000
						}
					}
				}
			}
			JOINT Left_ShortSleeve
			{
				OFFSET 0.265923 -10.480953 1.153800
				CHANNELS 3 Xrotation Yrotation Zrotation
				End Site
				{
					OFFSET 1.725763 19.823879 0.000000
				}
			}
		}
		JOINT RightUpLeg
		{
			OFFSET -6.797100 -2.508499 -1.318700
			CHANNELS 3 Xrotation Yrotation Zrotation
			JOINT RightLeg
			{
				OFFSET -0.082453 -29.241932 0.688000
				CHANNELS 3 Xrotation Yrotation Zrotation
				JOINT RightFoot
				{
					OFFSET 0.082453 -29.568058 -0.264600
					CHANNELS 3 Xrotation Yrotation Zrotation
					JOINT RightToeBase
					{
						OFFSET -3.115300 -8.682800 16.113400
						CHANNELS 3 Xrotation Yrotation Zrotation
						End Site
						{
							OFFSET 0.000000 18.567114 0.000000
						}
					}
				}
			}
			JOINT Right_ShortSleeve
			{
				OFFSET -0.265923 -10.480953 1.153800
				CHANNELS 3 Xrotation Yrotation Zrotation
				End Site
				{
					OFFSET -1.725766 19.823910 0.000000
				}
			}
		}
	}
	JOINT Spine
	{
		OFFSET 0.000000 13.368103 0.470500
		CHANNELS 3 Xrotation Yrotation Zrotation
		JOINT Spine1
		{
			OFFSET 0.147000 13.837402 0.538800
			CHANNELS 3 Xrotation Yrotation Zrotation
			JOINT Spine2
			{
				OFFSET 0.168000 16.242897 -1.435500
				CHANNELS 3 Xrotation Yrotation Zrotation
				JOINT Neck
				{
					OFFSET 0.217200 18.631500 -1.679100
					CHANNELS 3 Xrotation Yrotation Zrotation
					JOINT Head
					{
						OFFSET 0.000000 6.599396 1.385900
						CHANNELS 3 Xrotation Yrotation Zrotation
						JOINT Hat
						{
							OFFSET -0.532200 27.220596 -10.096100
							CHANNELS 3 Xrotation Yrotation Zrotation
							End Site
							{
								OFFSET 0.000000 22.029861 0.000000
							}
						}
						JOINT HairD
						{
							OFFSET -10.777400 17.437393 -1.325900
							CHANNELS 3 Xrotation Yrotation Zrotation
							JOINT HairD1
							{
								OFFSET -3.290299 -11.051193 1.062200
								CHANNELS 3 Xrotation Yrotation Zrotation
								End Site
								{
									OFFSET 0.000000 11.579437 0.000000
								}
							}
						}
						JOINT HairB
						{
							OFFSET -10.777400 17.437393 1.467900
							CHANNELS 3 Xrotation Yrotation Zrotation
							JOINT HairB1
							{
								OFFSET -1.561200 -12.956299 3.590200
								CHANNELS 3 Xrotation Yrotation Zrotation
								End Site
								{
									OFFSET 0.000000 13.534866 0.000000
								}
							}
						}
						JOINT HairA
						{
							OFFSET 9.713100 17.437393 1.467900
							CHANNELS 3 Xrotation Yrotation Zrotation
							JOINT HairA1
							{
								OFFSET 1.561200 -12.956299 3.590200
								CHANNELS 3 Xrotation Yrotation Zrotation
								End Site
								{
									OFFSET 0.000000 13.534866 0.000000
								}
							}
						}
						JOINT HairC
						{
							OFFSET 9.713100 17.437393 -1.325900
							CHANNELS 3 Xrotation Yrotation Zrotation
							JOINT HairC1
							{
								OFFSET 3.290300 -11.051193 1.062200
								CHANNELS 3 Xrotation Yrotation Zrotation
								End Site
								{
									OFFSET 0.000000 11.579437 0.000000
								}
							}
						}
					}
				}
				JOINT LeftShoulder
				{
					OFFSET 5.101800 15.108002 -2.763700
					CHANNELS 3 Xrotation Yrotation Zrotation
					JOINT LeftArm
					{
						OFFSET 9.825497 2.506317 -1.597400
						CHANNELS 3 Xrotation Yrotation Zrotation
						JOINT LeftForeArm
						{
							OFFSET 21.966244 0.000000 0.000000
							CHANNELS 3 Xrotation Yrotation Zrotation
							JOINT LeftHand
							{
								OFFSET 33.879036 0.000000 0.000000
								CHANNELS 3 Xrotation Yrotation Zrotation
								JOINT LeftHandThumb1
								{
									OFFSET 6.715286 -2.359680 3.363841
									CHANNELS 3 Xrotation Yrotation Zrotation
									JOINT LeftHandThumb2
									{
										OFFSET 2.507072 -1.447464 1.447461
										CHANNELS 3 Xrotation Yrotation Zrotation
										JOINT LeftHandThumb3
										{
											OFFSET 2.898338 -1.673355 1.673357
											CHANNELS 3 Xrotation Yrotation Zrotation
											End Site
											{
												OFFSET -0.295959 3.727692 -0.131651
											}
										}
									}
								}
								JOINT LeftHandIndex1
								{
									OFFSET 14.190811 -0.254547 3.840278
									CHANNELS 3 Xrotation Yrotation Zrotation
									JOINT LeftHandIndex2
									{
										OFFSET 3.551727 0.000000 -0.000000
										CHANNELS 3 Xrotation Yrotation Zrotation
										JOINT LeftHandIndex3
										{
											OFFSET 2.894196 0.000000 0.000000
											CHANNELS 3 Xrotation Yrotation Zrotation
											End Site
											{
												OFFSET -1.000603 2.690872 0.366626
											}
										}
									}
								}
								JOINT LeftHandMiddle1
								{
									OFFSET 13.776489 0.000000 0.000000
									CHANNELS 3 Xrotation Yrotation Zrotation
									JOINT LeftHandMiddle2
									{
										OFFSET 3.438232 0.000000 0.000000
										CHANNELS 3 Xrotation Yrotation Zrotation
										JOINT LeftHandMiddle3
										{
											OFFSET 3.691551 0.000000 0.000000
											CHANNELS 3 Xrotation Yrotation Zrotation
											End Site
											{
												OFFSET -1.082298 3.499527 0.457670
											}
										}
									}
								}
								JOINT LeftHandRing1
								{
									OFFSET 13.966164 -0.268127 -3.067488
									CHANNELS 3 Xrotation Yrotation Zrotation
									JOINT LeftHandRing2
									{
										OFFSET 3.162567 0.000000 0.000000
										CHANNELS 3 Xrotation Yrotation Zrotation
										JOINT LeftHandRing3
										{
											OFFSET 3.324348 0.000000 0.000000
											CHANNELS 3 Xrotation Yrotation Zrotation
											End Site
											{
												OFFSET -0.861900 3.184998 0.405154
											}
										}
									}
								}
								JOINT LeftHandPinky1
								{
									OFFSET 13.131393 -0.168503 -5.746925
									CHANNELS 3 Xrotation Yrotation Zrotation
									JOINT LeftHandPinky2
									{
										OFFSET 2.849182 0.000000 0.000000
										CHANNELS 3 Xrotation Yrotation Zrotation
										JOINT LeftHandPinky3
										{
											OFFSET 2.805038 0.000000 0.000000
											CHANNELS 3 Xrotation Yrotation Zrotation
											End Site
											{
												OFFSET -0.882500 2.642609 0.325652
											}
										}
									}
								}
							}
							JOINT Left_Sleeve
							{
								OFFSET 6.592125 -0.646545 0.805568
								CHANNELS 3 Xrotation Yrotation Zrotation
								End Site
								{
									OFFSET -0.000179 20.275787 -0.000000
								}
							}
						}
					}
				}
				JOINT RightShoulder
				{
					OFFSET -5.731700 15.108002 -2.763700
					CHANNELS 3 Xrotation Yrotation Zrotation
					JOINT RightArm
					{
						OFFSET -9.825497 2.506317 -1.597400
						CHANNELS 3 Xrotation Yrotation Zrotation
						JOINT RightForeArm
						{
							OFFSET -21.966242 0.000000 0.000000
							CHANNELS 3 Xrotation Yrotation Zrotation
							JOINT RightHand
							{
								OFFSET -33.879032 0.000000 0.000000
								CHANNELS 3 Xrotation Yrotation Zrotation
								JOINT RightHandThumb1
								{
									OFFSET -6.715286 -2.359680 3.363841
									CHANNELS 3 Xrotation Yrotation Zrotation
									JOINT RightHandThumb2
									{
										OFFSET -2.507072 -1.447464 1.447461
										CHANNELS 3 Xrotation Yrotation Zrotation
										JOINT RightHandThumb3
										{
											OFFSET -2.898338 -1.673355 1.673357
											CHANNELS 3 Xrotation Yrotation Zrotation
											End Site
											{
												OFFSET 0.295959 3.727692 -0.131651
											}
										}
									}
								}
								JOINT RightHandIndex1
								{
									OFFSET -14.190811 -0.254547 3.840278
									CHANNELS 3 Xrotation Yrotation Zrotation
									JOINT RightHandIndex2
									{
										OFFSET -3.551727 0.000000 -0.000000
										CHANNELS 3 Xrotation Yrotation Zrotation
										JOINT RightHandIndex3
										{
											OFFSET -2.894196 0.000000 0.000000
											CHANNELS 3 Xrotation Yrotation Zrotation
											End Site
											{
												OFFSET 1.000603 2.690872 0.366626
											}
										}
									}
								}
								JOINT RightHandMiddle1
								{
									OFFSET -13.776489 0.000000 0.000000
									CHANNELS 3 Xrotation Yrotation Zrotation
									JOINT RightHandMiddle2
									{
										OFFSET -3.438232 0.000000 0.000000
										CHANNELS 3 Xrotation Yrotation Zrotation
										JOINT RightHandMiddle3
										{
											OFFSET -3.691551 0.000000 0.000000
											CHANNELS 3 Xrotation Yrotation Zrotation
											End Site
											{
												OFFSET 1.082298 3.499527 0.457670
											}
										}
									}
								}
								JOINT RightHandRing1
								{
									OFFSET -13.966164 -0.268127 -3.067488
									CHANNELS 3 Xrotation Yrotation Zrotation
									JOINT RightHandRing2
									{
										OFFSET -3.162567 0.000000 0.000000
										CHANNELS 3 Xrotation Yrotation Zrotation
										JOINT RightHandRing3
										{
											OFFSET -3.324348 0.000000 0.000000
											CHANNELS 3 Xrotation Yrotation Zrotation
											End Site
											{
												OFFSET 0.861900 3.184998 0.405154
											}
										}
									}
								}
								JOINT RightHandPinky1
								{
									OFFSET -13.131393 -0.168503 -5.746925
									CHANNELS 3 Xrotation Yrotation Zrotation
									JOINT RightHandPinky2
									{
										OFFSET -2.849182 0.000000 0.000000
										CHANNELS 3 Xrotation Yrotation Zrotation
										JOINT RightHandPinky3
										{
											OFFSET -2.805038 0.000000 0.000000
											CHANNELS 3 Xrotation Yrotation Zrotation
											End Site
											{
												OFFSET 0.882500 2.642609 0.325652
											}
										}
									}
								}
							}
							JOINT Right_Sleeve
							{
								OFFSET -6.592125 -0.646545 0.805568
								CHANNELS 3 Xrotation Yrotation Zrotation
								End Site
								{
									OFFSET 0.000179 20.275787 -0.000000
								}
							}
						}
					}
				}
				JOINT Bind_Right_JacketString
				{
					OFFSET -3.534800 11.969597 7.200700
					CHANNELS 3 Xrotation Yrotation Zrotation
					JOINT Bind_Right_JacketString1
					{
						OFFSET -0.319900 -6.102600 2.794100
						CHANNELS 3 Xrotation Yrotation Zrotation
						End Site
						{
							OFFSET 0.000000 6.719452 0.000000
						}
					}
				}
				JOINT Bind_Left_JacketString
				{
					OFFSET 2.904800 11.969597 7.200700
					CHANNELS 3 Xrotation Yrotation Zrotation
					JOINT Bind_Left_JacketString1
					{
						OFFSET 0.364800 -5.904503 3.186800
						CHANNELS 3 Xrotation Yrotation Zrotation
						End Site
						{
							OFFSET 0.000000 6.719513 0.000000
						}
					}
				}
				JOINT HairE
				{
					OFFSET 5.915200 17.612701 -11.592200
					CHANNELS 3 Xrotation Yrotation Zrotation
					JOINT HairE1
					{
						OFFSET 0.289200 -7.171898 -1.284500
						CHANNELS 3 Xrotation Yrotation Zrotation
						End Site
						{
							OFFSET 0.000000 7.291756 0.000000
						}
					}
				}
				JOINT HairF
				{
					OFFSET -0.864800 17.612701 -11.592200
					CHANNELS 3 Xrotation Yrotation Zrotation
					JOINT HairF1
					{
						OFFSET 0.000000 -14.087097 -2.127501
						CHANNELS 3 Xrotation Yrotation Zrotation
						End Site
						{
							OFFSET 0.000000 14.246841 0.000000
						}
					}
				}
				JOINT HairG
				{
					OFFSET -8.087700 17.612701 -11.592200
					CHANNELS 3 Xrotation Yrotation Zrotation
					JOINT HairG1
					{
						OFFSET -0.293600 -6.081398 -0.910100
						CHANNELS 3 Xrotation Yrotation Zrotation
						End Site
						{
							OFFSET 0.000000 6.156120 0.000000
						}
					}
				}
			}
		}
	}
	JOINT Pouch
	{
		OFFSET 0.000000 4.394501 10.847300
		CHANNELS 3 Xrotation Yrotation Zrotation
		End Site
		{
			OFFSET 0.000000 21.880577 0.000000
		}
	}
	JOINT Bag
	{
		OFFSET -13.229000 4.813004 -0.593300
		CHANNELS 3 Xrotation Yrotation Zrotation
		End Site
		{
			OFFSET 0.000000 21.880577 0.000000
		}
	}
	JOINT OccupyGuyFacialAnim_Joint
	{
		OFFSET 1.000000 -70.206398 -1.655000
		CHANNELS 3 Xrotation Yrotation Zrotation
		End Site
		{
			OFFSET 0.000000 21.880577 0.000000
		}
	}
}
MOTION
Frames: 4
Frame Time: 0.016667
2.758057 61.699722 -2.531780 3.709397 -55.471938 3.432825 -0.000000 0.000000 -0.000000 -41.357823 3.901895 22.059426 46.356217 -3.753889 1.468226 -8.353421 -6.249690 -16.051972 -0.000000 -0.000003 -0.000000 -0.000001 0.000004 0.000001 -38.088953 -23.060694 -36.370491 52.182481 8.160018 -3.774123 -19.600490 -2.795133 17.729959 -0.000000 0.000000 -0.000000 0.000001 0.000000 0.000001 10.406702 12.085262 -3.937470 3.762003 4.020631 -2.477473 3.818223 3.985000 -2.462741 0.516756 1.074229 7.089724 -7.298612 30.311229 -5.053250 0.000002 -0.000000 0.000000 0.000002 -0.000000 0.000000 0.000002 -0.000000 0.000000 0.000002 -0.000000 0.000000 0.000001 -0.000000 0.000000 0.000002 -0.000000 0.000000 0.000001 -0.000000 0.000000 0.000002 -0.000000 0.000000 0.000002 -0.000000 0.000000 0.201637 -6.892844 -14.624145 -24.181373 -39.117719 -26.205481 -2.022156 -73.632834 -1.555842 -5.774916 23.551652 40.520541 40.109910 -15.297136 -0.360496 5.639919 28.097795 11.338768 0.000000 0.000001 -0.000001 6.882277 2.840044 -61.140500 8.247984 7.640017 -89.897878 0.000000 -0.000001 -0.000000 -2.345520 4.688873 -62.655224 8.754150 9.897067 -87.051225 0.000000 -0.000000 -0.000001 -9.042500 10.045597 -60.766192 8.523956 9.508879 -66.892947 -0.000000 0.000002 -0.000000 -17.946862 14.755013 -51.485904 8.868399 8.667036 -84.812098 -0.000000 -0.000001 0.000001 -0.000000 0.000002 0.000001 3.144277 20.729231 -9.731361 -14.532874 28.739192 7.272875 -179.799307 72.546670 179.534145 -65.149500 13.409686 -51.164469 0.277451 -1.521477 -1.570529 7.169053 -41.689661 -15.773576 -0.000002 0.000000 0.000002 6.412775 -12.738406 14.389479 9.941751 -7.465173 101.743256 -0.000000 0.000001 -0.000001 2.653162 -11.302288 44.730885 9.916063 -9.880677 94.351168 0.000001 0.000001 0.000001 2.140164 -7.454422 61.764977 9.609227 -8.992471 89.388701 -0.000001 0.000000 -0.000000 -4.886676 -23.798162 68.396107 13.518307 -7.949247 112.864969 0.000000 0.000000 0.000001 0.000001 -0.000001 -0.000001 0.000001 -0.000001 0.000000 -0.000000 -0.000003 0.000001 0.000001 -0.000001 0.000000 0.000001 -0.000001 0.000000 0.000001 -0.000001 0.000000 -0.000000 -0.000003 0.000001 0.000001 -0.000001 0.000000 0.000001 -0.000001 0.000000 0.000001 -0.000001 0.000000 -0.000000 -0.000003 0.000001 -0.000000 0.000000 -0.000000 -0.000000 0.000000 -0.000000 -0.000000 0.000000 -0.000000 
2.806941 61.773361 -2.561995 3.984837 -56.227613 3.588903 0.000000 0.000001 -0.000000 -41.246218 4.246263 22.466557 46.131108 -3.874663 1.459161 -8.299079 -5.839930 -16.087349 0.000000 -0.000002 0.000000 -0.000000 -0.000003 -0.000002 -38.269967 -22.914641 -35.983086 51.807658 7.352487 -3.833566 -19.275048 -1.595000 17.905437 0.000000 -0.000000 -0.000000 0.000000 -0.000001 -0.000000 11.016984 12.424516 -4.514230 3.882956 4.155491 -2.595620 3.940179 4.114878 -2.582872 0.077767 1.097557 7.089565 -9.455420 30.205893 -4.759085 -0.000000 0.000000 0.000000 -0.000000 0.000000 0.000000 -0.000000 0.000000 -0.000000 -0.000000 0.000000 -0.000000 -0.000001 0.000000 -0.000000 -0.000000 0.000000 -0.000000 -0.000001 0.000000 -0.000000 -0.000000 0.000000 0.000000 -0.000000 0.000000 0.000000 0.273687 -7.175068 -13.814900 -27.151295 -40.609337 -28.235261 -1.969219 -72.750141 -1.517574 -3.652099 23.449919 41.380636 40.109914 -15.297134 -0.360496 5.639922 28.097795 11.338776 0.000000 0.000001 -0.000001 6.882278 2.840044 -61.140500 8.247984 7.640017 -89.897878 -0.000001 -0.000002 -0.000001 -2.345517 4.688878 -62.655224 8.754154 9.897064 -87.051225 0.000003 -0.000002 0.000000 -9.042493 10.045601 -60.766192 8.523960 9.508885 -66.892947 0.000002 -0.000001 -0.000003 -17.946860 14.755012 -51.485898 8.868404 8.667040 -84.812098 0.000002 -0.000001 0.000001 0.000000 -0.000001 0.000002 2.514161 21.233544 -6.811734 -5.943701 30.749928 2.272447 -179.151928 73.423803 179.050062 -67.159543 12.064840 -48.542629 0.277482 -1.521466 -1.570571 7.169062 -41.689709 -15.773489 -0.000000 0.000002 0.000001 6.412832 -12.738465 14.389523 9.941750 -7.465094 101.743256 0.000000 0.000000 0.000000 2.653161 -11.302313 44.730909 9.916102 -9.880686 94.351195 0.000002 -0.000001 -0.000001 2.140162 -7.454437 61.765011 9.609262 -8.992466 89.388742 0.000001 -0.000002 0.000000 -4.886701 -23.798162 68.396121 13.518257 -7.949258 112.864990 -0.000001 -0.000001 0.000000 -0.000000 -0.000002 -0.000001 0.000001 -0.000001 0.000001 0.000001 -0.000002 -0.000000 0.000001 -0.000001 0.000000 0.000001 -0.000001 0.000000 0.000001 -0.000001 0.000001 0.000001 -0.000002 -0.000000 0.000001 -0.000001 0.000000 0.000001 -0.000001 0.000000 0.000001 -0.000001 0.000001 0.000001 -0.000002 -0.000000 0.000000 0.000001 -0.000000 0.000000 0.000001 -0.000000 0.000000 0.000001 -0.000000 
2.886000 61.888588 -2.591582 4.247668 -57.106740 3.716886 0.000000 0.000000 -0.000000 -41.016884 4.635004 22.891521 45.754071 -3.953305 1.453640 -8.176442 -5.370391 -16.130530 0.000000 0.000000 0.000000 -0.000002 -0.000003 -0.000001 -38.386773 -22.777568 -35.596962 51.355479 8.754709 -3.732066 -18.818674 -2.307950 17.259144 0.000000 0.000000 -0.000000 -0.000001 0.000000 -0.000001 11.603116 12.500103 -5.076134 4.041845 4.210471 -2.712403 4.093326 4.173059 -2.703598 -0.417999 1.150584 7.039629 -11.340490 30.556528 -4.537710 0.000000 0.000000 -0.000000 0.000000 0.000000 -0.000000 0.000000 0.000000 -0.000000 0.000000 0.000000 -0.000000 -0.000000 -0.000000 0.000000 0.000000 0.000000 -0.000000 -0.000000 -0.000000 0.000000 0.000000 0.000000 -0.000000 0.000000 0.000000 -0.000000 0.377113 -7.436375 -12.890572 -30.060646 -41.102105 -29.619375 -2.081572 -72.317346 -1.635819 -1.913082 23.426596 42.068160 40.109910 -15.297138 -0.360499 5.639920 28.097795 11.338777 -0.000000 -0.000000 -0.000000 6.882277 2.840046 -61.140500 8.247988 7.640021 -89.897871 0.000005 0.000001 0.000003 -2.345518 4.688877 -62.655224 8.754152 9.897062 -87.051225 -0.000001 -0.000001 0.000000 -9.042499 10.045603 -60.766192 8.523960 9.508882 -66.892953 0.000001 -0.000002 0.000001 -17.946860 14.755015 -51.485898 8.868402 8.667041 -84.812091 0.000001 0.000002 0.000003 0.000000 0.000002 0.000002 2.559581 21.019410 -6.830150 -1.561706 33.072063 0.691372 -178.933758 75.268698 179.032113 -68.145938 10.673613 -45.251742 0.277465 -1.521473 -1.570504 7.169004 -41.689617 -15.773560 0.000002 0.000000 0.000000 6.412857 -12.738430 14.389530 9.941713 -7.465152 101.743277 -0.000001 -0.000001 -0.000003 2.653182 -11.302296 44.730946 9.916067 -9.880680 94.351147 0.000003 0.000001 0.000001 2.140171 -7.454445 61.765032 9.609248 -8.992485 89.388694 0.000001 0.000000 0.000001 -4.886676 -23.798152 68.396148 13.518292 -7.949274 112.864976 -0.000002 0.000000 0.000001 0.000001 -0.000003 -0.000000 0.000002 0.000001 -0.000001 0.000003 -0.000004 0.000001 0.000002 0.000001 -0.000000 0.000002 0.000001 -0.000000 0.000002 0.000001 -0.000001 0.000003 -0.000004 0.000001 0.000002 0.000001 -0.000000 0.000002 0.000001 -0.000000 0.000002 0.000001 -0.000001 0.000003 -0.000004 0.000001 0.000000 0.000000 -0.000000 0.000000 0.000000 -0.000000 0.000000 0.000000 -0.000000 
2.987627 61.993568 -2.624842 4.521441 -58.265304 3.844432 -0.000000 0.000001 -0.000000 -40.789907 5.149045 23.473931 45.472152 -4.152231 1.438762 -8.110699 -4.703060 -16.163815 -0.000000 0.000000 0.000000 -0.000001 0.000003 0.000002 -38.529268 -22.487814 -35.033229 50.850772 9.038638 -3.712353 -18.295650 -1.913378 17.003776 -0.000000 -0.000000 -0.000000 0.000002 0.000000 -0.000001 12.162143 12.288665 -5.601757 4.167027 4.169355 -2.813602 4.213590 4.134013 -2.809069 -0.982840 1.275625 6.943002 -12.696573 31.538798 -4.386470 0.000001 -0.000000 0.000000 0.000001 -0.000000 0.000000 0.000001 -0.000000 -0.000000 0.000001 -0.000000 -0.000000 0.000001 0.000000 -0.000000 0.000001 -0.000000 -0.000000 0.000001 0.000000 -0.000000 0.000001 -0.000000 0.000000 0.000001 -0.000000 0.000000 0.469994 -7.672760 -11.958909 -32.668334 -40.481093 -29.999311 -2.290938 -72.441949 -1.843392 -0.679283 23.671110 42.502959 40.109910 -15.297138 -0.360497 5.639920 28.097797 11.338779 -0.000002 0.000001 -0.000003 6.882274 2.840044 -61.140500 8.247989 7.640024 -89.897871 0.000003 0.000000 0.000002 -2.345515 4.688876 -62.655224 8.754153 9.897061 -87.051219 0.000002 0.000002 0.000001 -9.042494 10.045601 -60.766185 8.523960 9.508877 -66.892953 0.000000 0.000001 -0.000003 -17.946858 14.755013 -51.485898 8.868405 8.667043 -84.812091 -0.000001 -0.000005 0.000002 0.000000 0.000002 0.000003 1.947804 20.533126 -7.026571 -2.633538 35.447507 2.378814 -179.601313 76.885438 179.927100 -68.793283 7.356059 -41.081160 0.277473 -1.521485 -1.570579 7.169061 -41.689675 -15.773516 0.000000 0.000003 -0.000002 6.412756 -12.738432 14.389508 9.941757 -7.465179 101.743236 -0.000002 -0.000001 0.000000 2.653158 -11.302320 44.730912 9.916101 -9.880684 94.351175 0.000001 -0.000001 0.000003 2.140148 -7.454462 61.764991 9.609266 -8.992439 89.388701 0.000003 -0.000001 0.000003 -4.886730 -23.798126 68.396087 13.518258 -7.949288 112.864956 -0.000003 0.000001 0.000001 -0.000000 0.000002 0.000001 0.000001 -0.000001 0.000001 0.000001 -0.000003 0.000001 0.000001 -0.000001 0.000001 0.000001 -0.000001 0.000001 0.000001 -0.000001 0.000001 0.000001 -0.000003 0.000001 0.000001 -0.000001 0.000001 0.000001 -0.000001 0.000001 0.000001 -0.000001 0.000001 0.000001 -0.000003 0.000001 -0.000000 0.000001 -0.000000 -0.000000 0.000001 -0.000000 -0.000000 0.000001 -0.000000 
